# xmcd
#
# Track frame offsets:
#	182
#	14330
#	28900
#	43507
#	58555
#	75407
#	87020
#	101812
#	117527
#	134282
#
# Disc length: 1981 seconds
#
# Revision: 9
# Processed by: cddbd v1.5.1PL2 Copyright (c) Steve Scherf et al.
# Submitted via: dBpowerAMP V4.0
#
DISCID=7b07bb0a
DTITLE=Bryan White - Between Now And Forever
DYEAR=1996
DGENRE=Country
TTITLE0=Sittin' On Go
TTITLE1=Still Life
TTITLE2=Blindhearted
TTITLE3=Nickel In The Well
TTITLE4=I'm Not Supposed To Love You Anymore
TTITLE5=So Much For Pretending
TTITLE6=Between Now And Forever
TTITLE7=A Hundred And One
TTITLE8=On Any Given Night
TTITLE9=That's Another Song
EXTD=
EXTT0=
EXTT1=
EXTT2=
EXTT3=
EXTT4=
EXTT5=
EXTT6=
EXTT7=
EXTT8=
EXTT9=
PLAYORDER=
